<svg xmlns="http://www.w3.org/2000/svg" width="18px" height="18px" viewBox="0 0 116 116"><path d="M89.953 13.492C92.593 15.437 94.811 17.561 97 20l2.438 2.25c10.27 11.023 14.554 24.801 14.054 39.71-.905 9.385-4.008 18.384-9.492 26.04l-1.414 2.117C101.44 91.78 100.222 93.392 99 95h-2l-.625 1.75C94.45 99.9 92.221 101.26 89 103c-2.639-.22-3.705-.698-5.563-2.602L82 98.375l-1.555-2.188C78.471 93.2 76.74 90.132 75 87a231.677 231.677 0 00-5.563-8.21C65.094 72.64 61.011 66.37 57 60c-7.148-13.719-7.148-13.719-18-23v48l3-1 1-35h4a67.361 67.361 0 014.813 6.875c.887 1.389 1.775 2.777 2.664 4.164l1.305 2.064c1.563 2.435 3.222 4.793 4.906 7.147C71 83.884 71 83.884 71 87h2c1.621 2.23 1.621 2.23 3.438 5.188l1.808 2.917L80 98l1.723 2.613C83 103 83 103 83 107c-16.637 6.121-31.399 6.912-48 0-10.452-5.355-10.452-5.355-12-10a89.261 89.261 0 00-4-2c-2.71-2.276-4.224-4.966-6-8l-1.426-1.672c-6.743-9.973-8.28-24.949-6.19-36.439C8.309 35.244 14.41 23.285 26 15c2.291-1.464 4.59-2.726 7-4l2.383-1.504c16.138-9.225 39.662-5.7 54.57 3.996zM76 36c-2.595 2.595-1.23 9.616-1.24 13.136-.01 2.026-.04 4.051-.073 6.077l-.015 3.892-.028 3.568C75.039 66.367 76.158 68.8 78 72h1V36h-3z" fill="#F0F3F4"/><path d="M109 41c4.747 4.747 4.413 12.162 4.45 18.494-.176 7.948-2.7 15.12-5.45 22.506-.95-2.565-1.165-3.628-.036-6.177 1.31-3.569 1.262-6.513 1.231-10.311l-.008-2.131a996.516 996.516 0 00-.062-6.694c-.01-1.518-.02-3.037-.027-4.556-.022-3.71-.057-7.42-.098-11.131z" fill="#66747E"/><path d="M82 9c1.879 1.637 1.879 1.637 3 3l-1.906-.586a686.068 686.068 0 00-5.399-1.617 490.91 490.91 0 01-6.32-1.922C64.785 6.235 57.755 6.311 51 6v2l-2.055.262c-6.368.961-11.345 2.63-16.949 5.812L30 15l-2-1 5-3 2.352-1.5C48.676 1.954 68.272 3.111 82 9z" fill="#546570"/><path d="M26 15l2 1c-.934 1.273-1.873 2.543-2.813 3.813l-1.582 2.144C22.168 23.787 20.641 25.359 19 27l-1 2-3 1-1 5h-2l-.375 1.875C11 39 11 39 9 41c1.67-11.505 8.023-18.958 17-26z" fill="#8EA1AA"/><path d="M79 98c3.292 2.576 3.44 4.987 4 9-12.095 4.45-23.071 6.97-36 4v-1l3.734.14c9.941.258 18.052-.02 27.266-4.14.733-3.978.733-3.978 1-8z" fill="#3A464D"/><path d="M8 41c1.062 3.252.884 5.328.063 8.625-1.455 6.727-1.82 13.066 0 19.75C8.959 72.843 9.01 73.792 8 77 3.831 65.064 3.312 52.86 8 41z" fill="#637984"/><path d="M69 77c1.938.313 1.938.313 4 1l1 3 2 2 .902 2.309c1.582 3.877 4.058 6.94 6.54 10.289C84.885 97.824 85.563 99.41 86 102c-4.195-3.701-6.79-7.735-9.582-12.566a93.928 93.928 0 00-3.668-5.809C71.305 81.457 70.09 79.36 69 77z" fill="#445A64"/><path d="M46.75 6.938l2.422.027L51 7c-3 2-3 2-6.563 2.313-4.702.444-8.26 2.442-12.335 4.726L30 15l-2-1 5-3 2.563-1.625c3.755-2.119 6.908-2.5 11.187-2.438z" fill="#86969F"/><path d="M27 101h5v2h4l1 2a78.037 78.037 0 005 2v1c-6.053-.378-10.184-2.297-15-6v-1z" fill="#6F7E8E"/><path d="M36 104c1.73.455 3.46.914 5.188 1.375l2.917.773c2.717.8 5.286 1.755 7.895 2.852v1c-7.75.125-7.75.125-10-1v-2l-6-2v-1z" fill="#B8C5CC"/><path d="M79 98c3.31 3.31 3.504 4.532 4 9h-5l1-9z" fill="#789198"/><path d="M70 85l1 2h2c1.508 1.969 1.508 1.969 3.125 4.5l1.633 2.531L79 96l-1 2c-1.772-1.61-2.948-2.892-4-5.063-.973-2.27-.973-2.27-4-3.937v-4z" fill="#3F4C54"/><path d="M102 27c4.814 4.054 5.885 7.022 7 13l-2-1v-4h-3l-2-8z" fill="#57666B"/><path d="M62 108l8 1c-3.35 2.026-5.87 2.217-9.75 2.125l-2.984-.055L55 111v-1h7v-2z" fill="#C0D4DF"/><path d="M26 15l2 1-4 6-4-1 6-6z" fill="#88959E"/><path d="M14 87c3.063 1.02 4.058 1.528 6 4 .688 2.688.688 2.688 1 5-3.739-2.657-5.65-4.581-7-9z" fill="#67787F"/><path d="M69 77c1.938.313 1.938.313 4 1l1 3 2 2-2 2c-5-5.75-5-5.75-5-8z" fill="#849AA4"/></svg>